<svg width="29" height="25" viewBox="0 0 29 25" fill="none" xmlns="http://www.w3.org/2000/svg">
<path d="M28.1864 3.45952C27.1497 3.93552 26.045 4.25102 24.8934 4.40422C26.0781 3.66378 26.9824 2.50023 27.4075 1.09777C26.3029 1.78714 25.0833 2.27408 23.7835 2.54582C22.7346 1.3768 21.2397 0.652771 19.6089 0.652771C16.4448 0.652771 13.8975 3.34097 13.8975 6.63649C13.8975 7.11066 13.9358 7.5666 14.0299 8.00065C9.2786 7.75809 5.07435 5.37445 2.25004 1.74337C1.75696 2.63883 1.46773 3.66378 1.46773 4.76714C1.46773 6.83892 2.48699 8.67543 4.00631 9.73868C3.0881 9.72044 2.18731 9.44141 1.42417 9.00189C1.42417 9.02012 1.42417 9.04383 1.42417 9.06754C1.42417 11.9746 3.4052 14.3892 6.00302 14.9455C5.53781 15.0786 5.0308 15.1424 4.50461 15.1424C4.13872 15.1424 3.76935 15.1206 3.42263 15.0403C4.16312 17.4094 6.26437 19.151 8.76287 19.2076C6.81843 20.7997 4.34955 21.759 1.67681 21.759C1.20812 21.759 0.758603 21.7371 0.309082 21.6769C2.84069 23.3858 5.84098 24.3615 9.07649 24.3615C19.5932 24.3615 25.3429 15.2427 25.3429 7.33863C25.3429 7.07418 25.3342 6.81886 25.322 6.56536C26.4562 5.72279 27.4093 4.67049 28.1864 3.45952Z" fill="black"/>
</svg>
