<svg width="29" height="30" viewBox="0 0 29 30" fill="none" xmlns="http://www.w3.org/2000/svg">
<path fill-rule="evenodd" clip-rule="evenodd" d="M9.58372 0H20.0377C24.8483 0 28.7493 4.08337 28.7493 9.11874V20.0612C28.7493 25.0966 24.8483 29.18 20.0377 29.18H9.58372C4.77315 29.18 0.87207 25.0966 0.87207 20.0612V9.11874C0.87207 4.08337 4.77315 0 9.58372 0ZM20.0376 26.4444C23.4003 26.4444 26.1358 23.5811 26.1358 20.0612V9.11875C26.1358 5.59892 23.4003 2.73564 20.0376 2.73564H9.58364C6.22094 2.73564 3.48548 5.59892 3.48548 9.11875V20.0612C3.48548 23.5811 6.22094 26.4444 9.58364 26.4444H20.0376Z" fill="black"/>
<path fill-rule="evenodd" clip-rule="evenodd" d="M7.84131 14.59C7.84131 10.5613 10.9618 7.29498 14.8106 7.29498C18.6594 7.29498 21.7799 10.5613 21.7799 14.59C21.7799 18.6186 18.6594 21.885 14.8106 21.885C10.9618 21.885 7.84131 18.6186 7.84131 14.59ZM10.4549 14.59C10.4549 17.1031 12.4097 19.1493 14.8107 19.1493C17.2116 19.1493 19.1665 17.1031 19.1665 14.59C19.1665 12.075 17.2116 10.0306 14.8107 10.0306C12.4097 10.0306 10.4549 12.075 10.4549 14.59Z" fill="black"/>
<path d="M22.3027 7.71975C22.8156 7.71975 23.2313 7.28454 23.2313 6.74769C23.2313 6.21084 22.8156 5.77563 22.3027 5.77563C21.7898 5.77563 21.374 6.21084 21.374 6.74769C21.374 7.28454 21.7898 7.71975 22.3027 7.71975Z" fill="black"/>
</svg>
