<svg width="37" height="37" viewBox="0 0 37 37" fill="none" xmlns="http://www.w3.org/2000/svg">
<g clip-path="url(#clip0)">
<path d="M15 29.5002C15 27.567 13.433 26 11.5002 26C9.56702 26 8 27.567 8 29.4998C8 31.433 9.56702 33 11.5002 33C13.4319 32.9979 14.9979 31.4323 15 29.5002ZM9.24143 29.5002C9.24143 28.2525 10.2525 27.2414 11.5002 27.2414C12.7475 27.2414 13.7586 28.2525 13.7586 29.4998C13.7586 30.7475 12.7475 31.7586 11.5002 31.7586C10.2532 31.7572 9.24281 30.7468 9.24143 29.5002Z" fill="white"/>
<path d="M23.4998 33C25.433 33.0003 27 31.4333 27 29.5002C27.0003 27.567 25.4333 26 23.5002 26C21.567 26 20 27.567 20 29.5002C20.0024 31.4319 21.5677 32.9976 23.4998 33ZM23.4998 27.2414C24.7471 27.2414 25.7586 28.2525 25.7586 29.4998C25.7589 30.7471 24.7475 31.7586 23.5002 31.7586C22.2529 31.7586 21.2414 30.7475 21.2414 29.5002C21.2428 28.2536 22.2532 27.2432 23.4998 27.2414Z" fill="white"/>
<path d="M-1.42512 2.12021H2.08155C3.23548 2.11583 4.21937 2.9344 4.39517 4.04583L7.17107 21.1295C7.43316 22.786 8.89986 24.0065 10.6203 24H27.7787C28.096 24 28.3536 23.749 28.3536 23.4399C28.3536 23.1305 28.096 22.8798 27.7787 22.8798H10.6203C9.4664 22.8842 8.4825 22.0653 8.3067 20.9542L7.8348 18.0496H25.408C26.8959 18.049 28.2201 17.1307 28.7077 15.7615L31.968 6.59374C32.0293 6.42246 32.0014 6.23305 31.8936 6.08522C31.7855 5.93769 31.611 5.84987 31.4249 5.84987H5.85225L5.53081 3.87049C5.26871 2.21397 3.80201 0.993463 2.08155 1.00003H-1.42512C-1.74272 1.00003 -2 1.251 -2 1.56012C-2 1.86954 -1.74272 2.12021 -1.42512 2.12021ZM30.6171 6.97036L27.6215 15.3945C27.2943 16.3131 26.406 16.9291 25.408 16.9295H7.65259L6.03415 6.97005L30.6171 6.97036Z" fill="white"/>
</g>
<defs>
<clipPath id="clip0">
<rect width="37" height="37" fill="white"/>
</clipPath>
</defs>
</svg>
