<svg width="16" height="16" viewBox="0 0 16 16" fill="none" xmlns="http://www.w3.org/2000/svg">
<path d="M15.8 3.94466L8.13333 0.611331C8.04846 0.573567 7.95154 0.573567 7.86667 0.611331L0.2 3.94466C0.0785815 3.99766 6.82525e-05 4.11752 0 4.25V5.25C0 5.43409 0.149238 5.58333 0.333333 5.58333H15.6667C15.8508 5.58333 16 5.43409 16 5.25V4.25C15.9999 4.11752 15.9214 3.99766 15.8 3.94466Z" fill="black"/>
<path d="M11.5 9.58337H4.83331C4.55717 9.58337 4.33331 9.80723 4.33331 10.0834C4.33331 10.3595 4.55717 10.5834 4.83331 10.5834H11.5C11.7761 10.5834 12 10.3595 12 10.0834C12 9.80723 11.7761 9.58337 11.5 9.58337V9.58337Z" fill="black"/>
<path d="M11.5 11.9166H4.83331C4.55717 11.9166 4.33331 12.1405 4.33331 12.4166C4.33331 12.6928 4.55717 12.9166 4.83331 12.9166H11.5C11.7761 12.9166 12 12.6928 12 12.4166C12 12.1405 11.7761 11.9166 11.5 11.9166Z" fill="black"/>
<path fill-rule="evenodd" clip-rule="evenodd" d="M15.3333 14.0834C15.7015 14.0834 16 14.3819 16 14.75C16 15.1182 15.7015 15.4167 15.3333 15.4167H0.666667C0.298477 15.4167 0 15.1182 0 14.75C0 14.3819 0.298477 14.0834 0.666667 14.0834H1C1.18409 14.0834 1.33333 13.9341 1.33333 13.75V6.91671C1.33333 6.73261 1.48257 6.58337 1.66667 6.58337H14.3333C14.5174 6.58337 14.6667 6.73261 14.6667 6.91671V13.75C14.6667 13.9341 14.8159 14.0834 15 14.0834H15.3333ZM4 8.25004C3.63181 8.25004 3.33333 8.54852 3.33333 8.91671V13.75C3.33333 13.9341 3.48257 14.0834 3.66667 14.0834H12.6667C12.8508 14.0834 13 13.9341 13 13.75V8.91671C13 8.54852 12.7015 8.25004 12.3333 8.25004H4Z" fill="black"/>
</svg>
