<svg width="121" height="34" viewBox="0 0 121 34" fill="none" xmlns="http://www.w3.org/2000/svg">
<path fill-rule="evenodd" clip-rule="evenodd" d="M99.9144 22.26C102.279 22.26 104.149 19.57 104.149 16.26V8.25999H106.048V16.26C106.048 20.66 103.314 24.21 99.9524 24.21C96.5912 24.21 93.8567 20.66 93.8567 16.26V8.25999H95.7556V16.26C95.6797 19.62 97.5502 22.31 99.9049 22.31L99.9144 22.26ZM54.1777 24.33H52.2787V22.9C51.054 23.8028 49.5958 24.288 48.101 24.29C44.5881 24.3148 41.5173 21.7993 40.6755 18.2072C39.8337 14.6151 41.4405 10.8837 44.5609 9.18415C47.6813 7.4846 51.5012 8.26034 53.7979 11.06L52.4021 12.37C50.6559 10.3139 47.8036 9.77666 45.4891 11.068C43.1745 12.3594 41.9943 15.1465 42.6285 17.823C43.2628 20.4995 45.5482 22.3756 48.1674 22.37C49.7642 22.3735 51.2829 21.6431 52.3262 20.37H47.1989V18.37H54.1966L54.1777 24.33ZM33.6688 20.39C36.8151 20.39 39.3657 17.7037 39.3657 14.39C39.3657 11.0763 36.8151 8.38999 33.6688 8.38999C32.1579 8.38999 30.7088 9.02213 29.6404 10.1474C28.5721 11.2726 27.9719 12.7987 27.9719 14.39C27.9719 17.7037 30.5225 20.39 33.6688 20.39ZM22.0566 8.38999H20.1576V24.31H27.7535V22.31H22.0566V8.38999ZM33.6688 18.39C35.7663 18.39 37.4667 16.5991 37.4667 14.39C37.4667 12.1809 35.7663 10.39 33.6688 10.39C31.5712 10.39 29.8708 12.1809 29.8708 14.39C29.8813 16.5913 31.5786 18.37 33.6688 18.37V18.39ZM37.4667 24.33V22.33H29.8708V24.33H37.4667ZM66.8628 14.43C66.8628 11.1163 64.3122 8.43 61.1659 8.43L61.1849 8.39C59.6641 8.38462 58.2043 9.01989 57.1307 10.1544C56.0571 11.2888 55.4588 12.8283 55.469 14.43C55.469 17.7437 58.0196 20.43 61.1659 20.43C64.3122 20.43 66.8628 17.7437 66.8628 14.43ZM61.1659 18.43C63.2634 18.43 64.9638 16.6391 64.9638 14.43C64.9638 12.2209 63.2634 10.43 61.1659 10.43C59.0683 10.43 57.3679 12.2209 57.3679 14.43C57.3991 16.6235 59.102 18.3812 61.1849 18.37L61.1659 18.43ZM64.9638 24.37V22.37H57.3679V24.37H64.9638ZM68.8852 8.38999H70.7842V24.29H68.8852V8.38999ZM75.3132 8.38999H73.4142V24.32H75.3132V20.32H75.6075C77.7775 20.5679 79.8912 19.4883 81.0499 17.5402C82.2086 15.5921 82.2086 13.1179 81.0499 11.1698C79.8912 9.22168 77.7775 8.14206 75.6075 8.38999C75.5097 8.37907 75.411 8.37907 75.3132 8.38999ZM75.3132 10.39V10.4366L75.3037 10.44L75.3132 10.39ZM75.3132 10.4366C75.4088 10.4033 75.5074 10.381 75.6076 10.37C77.072 10.1646 78.5166 10.8723 79.311 12.1841C80.1054 13.496 80.1054 15.174 79.311 16.4859C78.5166 17.7977 77.072 18.5054 75.6076 18.3H75.3132V10.4366ZM88.9639 9.56614L88.9953 9.53999L88.9858 9.58999L88.9639 9.56614ZM86.3177 8.43999C87.311 8.40911 88.2706 8.8179 88.9639 9.56614L87.5901 10.71C87.0951 10.1653 86.3453 9.97197 85.6674 10.2143C84.9895 10.4565 84.5063 11.0905 84.4283 11.84V12C84.4283 12.88 85.0075 13.47 86.1373 13.55C90.486 13.83 92.4799 15.98 92.4799 18.82V19C92.2506 21.2954 90.7715 23.2393 88.6943 23.975C86.6171 24.7107 84.3233 24.1031 82.8236 22.42L84.2764 21.24C84.9608 22.0125 85.9328 22.4293 86.9349 22.38C88.835 22.4855 90.4764 20.9949 90.6569 19V18.86C90.6569 16.19 88.1692 15.7 86.0139 15.48C84.02 15.28 82.5863 13.97 82.5863 12.08V12C82.7323 9.95652 84.3726 8.39163 86.3177 8.43999ZM118.724 24.26H120.623L120.604 8.38999L114.337 17.08L108.07 8.38999V24.29H109.969V14.36L114.347 20.36L118.724 14.36V24.26Z" fill="white"/>
<path fill-rule="evenodd" clip-rule="evenodd" d="M11.0425 6C11.0425 2.99557 8.72999 0.559998 5.87733 0.559998C3.02467 0.559998 0.712128 2.99557 0.712128 6V22.45L4.96582 25.66V33.48H6.78884V25.66L11.0425 22.45V6ZM9.21952 15.2L6.78884 17.76V15.36L9.21952 12.8V15.2ZM5.0038 15.36L2.57312 12.8V15.2L5.0038 17.76V15.36ZM9.21952 10.08L5.87733 13.6L2.53514 10V7.6L5.87733 11.12L9.21952 7.6V10.08ZM9.10558 5.09C8.70871 3.55477 7.38806 2.48704 5.87733 2.48V2.44C4.35577 2.45191 3.03159 3.5389 2.64908 5.09L5.87733 8.48L9.10558 5.09ZM2.53514 21.48V17.88L4.96582 20.44V23.3L2.53514 21.48ZM6.78884 20.44V23.31L9.21952 21.47V17.88L6.78884 20.44Z" fill="#FFAC12"/>
</svg>
